<svg width="25" height="25" viewBox="0 0 25 25" fill="none" xmlns="http://www.w3.org/2000/svg">
<circle cx="12.334" cy="12.2812" r="12" fill="#F5F5F5"/>
<path d="M7.67441 17.4111C7.96006 17.6904 8.43613 17.6841 8.70908 17.4175L12.3336 13.7866L15.9581 17.4175C16.2374 17.6904 16.7135 17.6968 16.9928 17.4111C17.2721 17.1255 17.2721 16.6558 16.9928 16.3828L13.3683 12.752L16.9928 9.12744C17.2721 8.85449 17.2721 8.37842 16.9928 8.09912C16.7071 7.81982 16.2374 7.81982 15.9581 8.09277L12.3336 11.7173L8.70908 8.09277C8.43613 7.81982 7.95371 7.81348 7.67441 8.09912C7.39512 8.37842 7.40146 8.86084 7.66807 9.12744L11.2989 12.752L7.66807 16.3828C7.40146 16.6494 7.39512 17.1318 7.67441 17.4111Z" fill="#737373"/>
</svg>
