<svg width="34" height="34" viewBox="0 0 34 34" fill="none" xmlns="http://www.w3.org/2000/svg">
<path d="M17.0007 31.1668C24.8247 31.1668 31.1673 24.8242 31.1673 17.0002C31.1673 9.17613 24.8247 2.8335 17.0007 2.8335C9.17662 2.8335 2.83398 9.17613 2.83398 17.0002C2.83398 24.8242 9.17662 31.1668 17.0007 31.1668Z" fill="#FF3B30"/>
<path d="M18.9966 17.0001L22.2549 13.7559C22.5217 13.4892 22.6716 13.1274 22.6716 12.7501C22.6716 12.3728 22.5217 12.011 22.2549 11.7443C21.9882 11.4775 21.6264 11.3276 21.2491 11.3276C20.8718 11.3276 20.51 11.4775 20.2433 11.7443L16.9991 15.0026L13.7549 11.7443C13.4882 11.4775 13.1264 11.3276 12.7491 11.3276C12.3718 11.3276 12.01 11.4775 11.7433 11.7443C11.4765 12.011 11.3266 12.3728 11.3266 12.7501C11.3266 13.1274 11.4765 13.4892 11.7433 13.7559L15.0016 17.0001L11.7433 20.2443C11.6105 20.376 11.5051 20.5326 11.4332 20.7053C11.3612 20.8779 11.3242 21.0631 11.3242 21.2501C11.3242 21.4371 11.3612 21.6223 11.4332 21.7949C11.5051 21.9676 11.6105 22.1242 11.7433 22.2559C11.875 22.3887 12.0316 22.4941 12.2043 22.566C12.3769 22.638 12.5621 22.675 12.7491 22.675C12.9361 22.675 13.1213 22.638 13.2939 22.566C13.4666 22.4941 13.6232 22.3887 13.7549 22.2559L16.9991 18.9976L20.2433 22.2559C20.375 22.3887 20.5316 22.4941 20.7043 22.566C20.8769 22.638 21.0621 22.675 21.2491 22.675C21.4361 22.675 21.6213 22.638 21.7939 22.566C21.9666 22.4941 22.1232 22.3887 22.2549 22.2559C22.3877 22.1242 22.4931 21.9676 22.565 21.7949C22.637 21.6223 22.674 21.4371 22.674 21.2501C22.674 21.0631 22.637 20.8779 22.565 20.7053C22.4931 20.5326 22.3877 20.376 22.2549 20.2443L18.9966 17.0001Z" fill="white"/>
</svg>
