<svg width="40" height="40" viewBox="0 0 40 40" fill="none" xmlns="http://www.w3.org/2000/svg">
<path d="M14.0605 35.1562H26.9395C29.0859 35.1562 30.2754 34.0625 30.3711 31.9707L31.2188 12.543H32.873C33.748 12.543 34.4043 11.9141 34.4043 11.0391C34.4043 10.1777 33.748 9.54883 32.873 9.54883H27.1992V7.56641C27.1992 5.20117 25.709 3.86133 23.084 3.86133H17.8887C15.2637 3.86133 13.7734 5.20117 13.7734 7.56641V9.54883H8.11328C7.25195 9.54883 6.58203 10.1777 6.58203 11.0391C6.58203 11.9141 7.25195 12.543 8.11328 12.543H9.78125L10.6289 31.9707C10.7109 34.0625 11.9004 35.1562 14.0605 35.1562ZM17.2051 7.67578C17.2051 7.16992 17.5332 6.86914 18.1211 6.86914H22.8516C23.4395 6.86914 23.7812 7.16992 23.7812 7.67578V9.54883H17.2051V7.67578ZM16.0293 30.5352C15.4004 30.5352 14.9492 30.1113 14.9355 29.4824L14.5254 15.5234C14.5117 14.8809 14.9355 14.4434 15.5918 14.4434C16.248 14.4434 16.6992 14.8672 16.7129 15.5098L17.123 29.4688C17.1367 30.0977 16.6992 30.5352 16.0293 30.5352ZM20.5 30.5352C19.8438 30.5352 19.3926 30.1113 19.3926 29.4824V15.4961C19.3926 14.8672 19.8438 14.4434 20.5 14.4434C21.1426 14.4434 21.5938 14.8672 21.5938 15.4961V29.4824C21.5938 30.1113 21.1426 30.5352 20.5 30.5352ZM24.957 30.5352C24.2871 30.5352 23.8496 30.0977 23.8633 29.4688L24.2734 15.5098C24.2871 14.8672 24.7383 14.457 25.3945 14.457C26.0508 14.457 26.4746 14.8809 26.4609 15.5234L26.0508 29.4824C26.0371 30.125 25.5859 30.5352 24.957 30.5352Z" fill="#FF3B30"/>
</svg>
