<svg width="40" height="40" viewBox="0 0 40 40" fill="none" xmlns="http://www.w3.org/2000/svg">
<path d="M20 34.5801C27.9297 34.5801 34.4375 28.0586 34.4375 20.1289C34.4375 12.2129 27.916 5.69141 20 5.69141C12.0703 5.69141 5.5625 12.2129 5.5625 20.1289C5.5625 28.0586 12.084 34.5801 20 34.5801ZM19.9863 15.6992C18.8105 15.6992 17.8398 14.7285 17.8398 13.5664C17.8398 12.3496 18.8105 11.4062 19.9863 11.4062C21.1484 11.4062 22.1055 12.3496 22.1055 13.5664C22.1055 14.7285 21.1484 15.6992 19.9863 15.6992ZM17.416 27.8535C16.6641 27.8535 16.0762 27.3203 16.0762 26.541C16.0762 25.8301 16.6641 25.2559 17.416 25.2559H19.002V20.252H17.6895C16.9375 20.252 16.3496 19.7188 16.3496 18.9395C16.3496 18.2285 16.9375 17.6543 17.6895 17.6543H20.4785C21.4355 17.6543 21.9414 18.3105 21.9414 19.3359V25.2559H23.2266C23.9785 25.2559 24.5664 25.8301 24.5664 26.541C24.5664 27.3203 23.9785 27.8535 23.2266 27.8535H17.416Z" fill="#007AFF"/>
</svg>
