<svg width="40" height="40" viewBox="0 0 40 40" fill="none" xmlns="http://www.w3.org/2000/svg">
<path d="M20 34.5801C27.9297 34.5801 34.4375 28.0586 34.4375 20.1289C34.4375 12.2129 27.916 5.69141 20 5.69141C12.0703 5.69141 5.5625 12.2129 5.5625 20.1289C5.5625 28.0586 12.084 34.5801 20 34.5801ZM18.4961 26.9922C17.8809 26.9922 17.4023 26.7188 16.9648 26.1855L13.752 22.3574C13.4375 21.9746 13.3145 21.6328 13.3145 21.2363C13.3145 20.3887 13.998 19.7188 14.832 19.7188C15.3242 19.7188 15.707 19.9102 16.0762 20.3477L18.4551 23.2871L23.7871 14.8105C24.1426 14.2363 24.5938 13.9492 25.127 13.9492C25.9473 13.9492 26.6992 14.5508 26.6992 15.3984C26.6992 15.7402 26.5625 16.1094 26.3164 16.4648L19.9727 26.1719C19.6172 26.6914 19.084 26.9922 18.4961 26.9922Z" fill="#4BB543"/>
</svg>
