<svg width="40" height="40" viewBox="0 0 40 40" fill="none" xmlns="http://www.w3.org/2000/svg">
<path d="M9.79492 34.582H31.2051C33.4336 34.582 34.9238 32.873 34.9238 30.8633C34.9238 30.248 34.7598 29.6191 34.4316 29.0312L23.7129 9.84961C22.9883 8.55078 21.7578 7.93555 20.5 7.93555C19.2422 7.93555 17.998 8.56445 17.2871 9.84961L6.56836 29.0449C6.24023 29.6191 6.07617 30.248 6.07617 30.8633C6.07617 32.873 7.56641 34.582 9.79492 34.582ZM20.5137 24.8066C19.5566 24.8066 18.9961 24.2734 18.9414 23.3027L18.7227 17.3965C18.6816 16.3574 19.4062 15.6602 20.5 15.6602C21.5801 15.6602 22.332 16.3711 22.291 17.3965L22.0586 23.2891C22.0176 24.2734 21.457 24.8066 20.5137 24.8066ZM20.5137 29.7422C19.4336 29.7422 18.5859 29.0586 18.5859 28.0059C18.5859 26.9805 19.4199 26.2832 20.5137 26.2832C21.6074 26.2832 22.4414 26.9805 22.4414 28.0059C22.4414 29.0586 21.6074 29.7422 20.5137 29.7422Z" fill="#FFA500"/>
</svg>
